<svg width="1440" height="235" viewBox="0 0 1440 235" fill="none" xmlns="http://www.w3.org/2000/svg">
<path d="M832.858 0.464905C801.073 3.62621 779.059 17.0761 769.518 39.2626C766.356 46.7348 765.322 52.1378 765.379 62.1964C765.379 69.6686 765.609 72.3701 766.644 76.451C770.265 91.0504 779.691 102.259 794.865 109.903C805.844 115.364 815.27 118.41 844.412 125.71C854.643 128.239 866.541 131.515 870.794 132.952C893.211 140.424 905.166 150.425 908.442 164.335C909.534 168.991 909.534 179.567 908.442 184.165C907.35 188.878 903.786 195.891 900.453 199.972C892.636 209.57 877.289 216.64 859.586 218.882C851.194 219.916 833.376 219.744 825.674 218.537C804.004 215.203 782.623 205.547 768.77 192.844L766.414 190.775L762.505 197.155L758.597 203.593L762.563 207.214C776.472 220.089 799.349 229.975 823.375 233.596C832.916 234.976 855.102 234.976 864.471 233.596C883.669 230.665 897.924 224.4 909.074 214.054C914.19 209.283 919.076 202.558 921.662 196.695C927.64 183.188 928.215 166.002 923.099 152.839C918.961 142.091 909.189 132.262 896.372 125.882C884.761 120.019 875.565 117.088 845.791 109.673C815.787 102.201 804.177 97.6604 795.095 89.9009C786.071 82.1413 782.335 73.8645 782.278 61.7366C782.22 36.8486 800.268 20.1224 831.651 15.9265C838.894 14.9494 855.045 15.0643 862.46 16.2139C878.783 18.628 893.325 23.8585 906.775 32.0779C908.845 33.3424 910.684 34.3195 910.799 34.2046C911.201 33.8022 916.777 21.5019 916.777 21.0421C916.777 20.1224 908.902 15.3517 902.177 12.1904C891.371 7.01741 878.726 3.22385 865.908 1.26959C858.896 0.177505 840.273 -0.282318 832.858 0.464905Z" fill="#232323"/>
<path d="M1347.86 0.177505C1346.77 0.292465 1343.38 0.694809 1340.39 1.03967C1319.01 3.45377 1296.53 12.7652 1279.92 26.1576C1263.77 39.2052 1251.13 56.9659 1244.46 75.9337C1240.26 87.7742 1238.25 98.81 1237.68 112.49C1235.21 174.451 1276.24 224.17 1337.52 233.424C1340.85 233.941 1347.58 234.516 1352.46 234.746C1383.9 236.01 1413.9 226.354 1433.73 208.478C1440.92 202.098 1440.8 202.903 1434.88 196.925C1432.07 194.109 1429.54 191.81 1429.31 191.81C1429.02 191.81 1427.01 193.477 1424.83 195.488C1414.65 204.915 1401.2 211.985 1386.37 215.663C1375.85 218.307 1368.84 218.997 1355.33 218.652C1336.19 218.192 1324.3 215.433 1309.01 207.731C1284.12 195.258 1265.04 171.692 1258.2 145.08C1255.44 134.217 1255.04 130.883 1255.04 117.375C1255.04 109.443 1255.32 103.121 1255.78 100.419C1261.76 66.5073 1281.48 40.0674 1311.25 25.9852C1326.31 18.8579 1339.99 15.9265 1358.5 15.9265C1385.17 15.9265 1405.69 22.9963 1424.19 38.458C1427.07 40.9295 1429.6 42.9413 1429.71 42.9413C1429.77 42.9413 1432.13 40.4697 1434.94 37.4234L1440 31.9629L1438.05 29.8937C1432.41 24.0309 1421.72 16.3864 1413.45 12.1904C1403.56 7.24731 1389.65 3.05142 1377.18 1.26959C1370.91 0.349945 1352.17 -0.339798 1347.86 0.177505Z" fill="#232323"/>
<path d="M0 117.318V233.194H8.62172H17.2434V195.258V157.322H55.6389C86.2747 157.322 95.4712 157.15 101.449 156.46C141.971 151.69 168.411 130.078 175.021 96.3381C176.343 89.6132 176.745 76.1633 175.941 68.8636C172.205 36.7333 151.627 14.3743 117.773 5.63762C103.518 1.95901 103.403 1.95901 49.3163 1.7291L0 1.49919V117.318ZM97.1956 17.6505C134.729 21.5016 155.478 39.8946 158.697 72.2548C159.732 82.8882 158.467 94.2114 155.248 103.236C148.409 122.606 131.797 135.251 106.679 140.194C100.529 141.401 98.7475 141.458 58.8001 141.688L17.2434 141.861V79.497V17.0758H54.2594C75.8712 17.0758 93.7469 17.3057 97.1956 17.6505Z" fill="#232323"/>
<path d="M251.467 116.341C222.441 179.509 198.472 231.642 198.185 232.216C197.725 233.136 198.242 233.194 206.979 233.079L216.291 232.906L230.947 200.546L245.604 168.243H312.681H379.816L386.656 183.303C390.449 191.637 397.117 206.236 401.485 215.835L409.36 233.194H418.499C423.557 233.194 427.638 233.079 427.638 232.964C427.638 232.906 403.727 180.831 374.528 117.318L321.418 1.84406L312.854 1.67162L304.29 1.49919L251.467 116.341ZM342.857 86.9117C359.296 123.065 372.804 152.897 372.918 153.242C373.091 153.701 355.56 153.874 312.681 153.874C275.78 153.874 252.329 153.644 252.444 153.356C253.364 150.77 312.394 21.0992 312.624 21.0992C312.854 21.0992 326.419 50.7005 342.857 86.9117Z" fill="#232323"/>
<path d="M503.509 117.375V233.194H511.843H520.177V195.316V157.38L562.022 157.093C585.013 156.92 604.958 156.748 606.395 156.633L608.924 156.46L636.456 194.856L663.93 233.194H673.702H683.415L660.252 200.833C647.492 183.073 634.674 165.139 631.685 161.059C628.754 156.92 626.167 153.299 625.88 152.954C625.535 152.552 627.029 151.69 630.421 150.425C641.859 146.114 650.538 140.711 658.527 133.009C672.839 119.214 679.507 102.201 679.507 79.7269C679.507 65.5298 677.15 54.4366 671.92 43.8031C661.804 23.3409 641.916 9.66107 614.442 4.20064C602.371 1.78656 596.566 1.55666 548.802 1.55666H503.509V117.375ZM600.13 17.6505C636.456 21.2717 657.493 38.9174 661.574 69.2084C662.493 75.8759 662.034 89.2683 660.712 95.5334C655.768 118.87 638.467 134.619 611.855 140.022C601.739 142.091 594.554 142.378 556.849 142.378H520.177V79.7269V17.0757H557.193C578.23 17.0757 596.796 17.3057 600.13 17.6505Z" fill="#232323"/>
<path d="M1001.84 117.375V233.194H1082.03H1162.21V225.434V217.675H1090.65H1019.09V170.542V123.41L1080.76 123.295L1142.38 123.123L1142.55 115.478L1142.72 107.891H1080.88H1019.09V62.4835V17.0757H1088.06H1157.03V9.31621V1.55666H1079.44H1001.84V117.375Z" fill="#232323"/>
</svg>
