<?xml version="1.0" encoding="UTF-8"?>
<svg id="Layer_2" data-name="Layer 2" xmlns="http://www.w3.org/2000/svg" viewBox="0 0 763.06 758.76">
  <defs>
    <style>
      .cls-1 {
        fill: #fff;
      }

      .cls-2 {
        opacity: .75;
      }
    </style>
  </defs>
  <g id="Layer_1-2" data-name="Layer 1">
    <g>
      <g class="cls-2">
        <path class="cls-1" d="M324.16,753.3c18.25,2.75,36.7,3.97,55.14,4.27v1.18c-131.9.89-256.73-69.56-324.75-182.52C-29.54,437.63-13.81,263.62,83.84,142.08c1.63,1.88,3.36,3.67,5.19,5.36C-8.53,267.29-22.68,439.38,58.03,574.14c51.7,87.24,139.89,151.92,238.97,173.97,8.68,2.09,18.37,3.78,27.16,5.19Z"/>
        <path class="cls-1" d="M763.06,381.58h-14.34c-.19-22.66-1.82-45.38-6.04-67.66-1.44-8.74-3.67-18.06-5.77-26.61C670.73,40.04,392.21-60.59,187.23,62.57c-1.58-2.32-3.32-4.54-5.19-6.63,214.88-131.5,500.43-21.37,568.03,227.93,8.49,31.82,12.65,64.77,12.99,97.71Z"/>
      </g>
      <circle class="cls-1" cx="133.3" cy="99.43" r="52.67"/>
    </g>
  </g>
</svg>