<?xml version="1.0" encoding="UTF-8"?>
<svg id="Layer_2" data-name="Layer 2" xmlns="http://www.w3.org/2000/svg" viewBox="0 0 501.19 142.46">
  <defs>
    <style>
      .cls-1 {
        opacity: .75;
      }
    </style>
  </defs>
  <g id="Layer_1-2" data-name="Layer 1">
    <g>
      <g>
        <path d="M131.53,85.28c-2.17-3.35-5.27-5.93-9.3-7.72-4.03-1.79-8.85-2.68-14.48-2.68h-24.06v67.1h4.89v-21.95h19.17c5.62,0,10.45-.89,14.48-2.68,4.03-1.79,7.13-4.38,9.3-7.76,2.17-3.39,3.26-7.42,3.26-12.08s-1.09-8.87-3.26-12.22ZM124.2,110.87c-3.74,3.17-9.22,4.75-16.44,4.75h-19.17v-36.33h19.17c7.22,0,12.7,1.58,16.44,4.75,3.74,3.16,5.6,7.65,5.6,13.47s-1.87,10.21-5.6,13.37Z"/>
        <path d="M176.78,74.87h-4.89l-30.87,67.1h5.28l8.56-18.88h38.92l8.59,18.88h5.27l-30.87-67.1ZM156.73,118.97l17.55-38.71,17.62,38.71h-35.17Z"/>
        <path d="M264.92,118.5c1.12-.35,2.19-.75,3.21-1.21,4.03-1.82,7.13-4.41,9.3-7.76,2.17-3.35,3.26-7.37,3.26-12.03s-1.09-8.87-3.26-12.22c-2.18-3.35-5.28-5.93-9.3-7.72-4.03-1.79-8.85-2.68-14.48-2.68h-24.06v67.1h4.89v-21.95h19.17c2.29,0,4.45-.15,6.47-.45l16.05,22.41h5.56l-16.83-23.48ZM253.66,115.71h-19.17v-36.43h19.17c7.23,0,12.71,1.58,16.44,4.75,3.74,3.16,5.61,7.65,5.61,13.47s-1.87,10.23-5.61,13.42c-3.74,3.2-9.22,4.8-16.44,4.8Z"/>
        <path d="M328.15,142.46c-4.99,0-9.7-.85-14.14-2.54-4.44-1.69-7.88-3.88-10.31-6.57l2.2-3.64c2.3,2.37,5.45,4.36,9.44,5.99,3.99,1.63,8.23,2.44,12.7,2.44s8.13-.59,10.98-1.77c2.84-1.18,4.95-2.76,6.33-4.75,1.37-1.98,2.06-4.19,2.06-6.61,0-2.88-.77-5.18-2.3-6.9-1.53-1.73-3.55-3.1-6.04-4.12-2.49-1.02-5.21-1.88-8.15-2.59-2.94-.7-5.91-1.45-8.92-2.25-3.01-.8-5.75-1.84-8.24-3.12-2.49-1.28-4.49-3.02-5.99-5.22-1.5-2.2-2.25-5.06-2.25-8.58,0-3.19.83-6.14,2.49-8.82,1.66-2.68,4.25-4.86,7.77-6.52,3.51-1.66,8.02-2.49,13.52-2.49,3.71,0,7.36.54,10.98,1.63,3.61,1.09,6.69,2.56,9.25,4.41l-1.82,3.93c-2.81-1.92-5.83-3.34-9.06-4.27-3.23-.93-6.34-1.39-9.35-1.39-4.28,0-7.83.61-10.64,1.82-2.81,1.21-4.89,2.83-6.23,4.84-1.34,2.01-2.01,4.27-2.01,6.76,0,2.88.75,5.18,2.25,6.9,1.5,1.73,3.5,3.1,5.99,4.12,2.49,1.02,5.24,1.89,8.24,2.59,3,.7,5.98,1.45,8.92,2.25,2.94.8,5.66,1.84,8.15,3.12,2.49,1.28,4.51,3,6.04,5.18,1.53,2.17,2.3,4.98,2.3,8.44,0,3.13-.86,6.06-2.59,8.77-1.73,2.72-4.36,4.89-7.91,6.52-3.55,1.63-8.1,2.44-13.66,2.44Z"/>
        <polygon points="420.57 137.57 420.57 141.98 374.26 141.98 374.26 74.87 419.13 74.87 419.13 79.28 379.15 79.28 379.15 105.75 414.91 105.75 414.91 110.05 379.15 110.05 379.15 137.57 420.57 137.57"/>
        <path d="M477.32,142.46c-4.99,0-9.6-.85-13.85-2.54-4.25-1.69-7.94-4.07-11.07-7.14-3.13-3.07-5.56-6.66-7.29-10.78-1.73-4.12-2.59-8.64-2.59-13.57s.86-9.44,2.59-13.57c1.73-4.12,4.17-7.72,7.33-10.78,3.16-3.07,6.85-5.45,11.07-7.14,4.22-1.69,8.82-2.54,13.8-2.54,4.73,0,9.16.77,13.28,2.3,4.12,1.53,7.65,3.87,10.59,7l-3.07,3.16c-2.88-2.81-6.06-4.84-9.54-6.09-3.48-1.25-7.18-1.87-11.07-1.87-4.28,0-8.26.74-11.94,2.21-3.68,1.47-6.87,3.55-9.59,6.23-2.72,2.68-4.83,5.82-6.33,9.39-1.5,3.58-2.25,7.48-2.25,11.7s.75,8.12,2.25,11.7c1.5,3.58,3.61,6.71,6.33,9.39,2.72,2.68,5.91,4.76,9.59,6.23,3.67,1.47,7.65,2.2,11.94,2.2,3.9,0,7.59-.62,11.07-1.87,3.48-1.25,6.66-3.31,9.54-6.18l3.07,3.16c-2.94,3.13-6.47,5.48-10.59,7.05-4.12,1.57-8.55,2.35-13.28,2.35Z"/>
      </g>
      <path class="cls-1" d="M32.6,129.69c11.24,7.7,24.82,11.94,38.51,12.04v.5c-60.48.07-91.85-69.29-55.85-114.82.65.85,1.39,1.61,2.22,2.26C-7.24,60.03-.8,107.43,32.6,129.69Z"/>
      <path class="cls-1" d="M144.1,71.85c0,.12-.09.22-.21.22h-5.75c-.11,0-.2-.1-.2-.21-.07-54.06-58.4-83.63-101.41-58.51-.61-1.07-1.37-2.03-2.25-2.87,45.7-28.22,108.92,3.35,109.82,61.37Z"/>
      <circle cx="25.43" cy="19.68" r="9.78"/>
    </g>
  </g>
</svg>